<?xml version="1.0"?>
<svg xmlns="http://www.w3.org/2000/svg" height="512px" viewBox="0 0 64 64" width="512px"><g><g id="Computer-Network-Intranet-Communication-Technology"><path d="m59 38h-16a3 3 0 0 0 -3 3v10a3 3 0 0 0 3 3h4v2.184a3 3 0 0 0 -2 2.816v2a1 1 0 0 0 1 1h10a1 1 0 0 0 1-1v-2a3 3 0 0 0 -2-2.816v-2.184h4a3 3 0 0 0 3-3v-10a3 3 0 0 0 -3-3zm-16 2h16a1 1 0 0 1 1 1v7h-18v-7a1 1 0 0 1 1-1zm12 20h-8v-1a1 1 0 0 1 1-1h6a1 1 0 0 1 1 1zm-2-4h-4v-2h4zm6-4h-16a1 1 0 0 1 -1-1v-1h18v1a1 1 0 0 1 -1 1z" data-original="#000000" class="active-path" data-old_color="#000000" fill="#43A6C1"/><path d="m59 2h-16a3 3 0 0 0 -3 3v10a3 3 0 0 0 3 3h4v2.184a3 3 0 0 0 -2 2.816v2a1 1 0 0 0 1 1h10a1 1 0 0 0 1-1v-2a3 3 0 0 0 -2-2.816v-2.184h4a3 3 0 0 0 3-3v-10a3 3 0 0 0 -3-3zm-16 2h16a1 1 0 0 1 1 1v7h-18v-7a1 1 0 0 1 1-1zm12 20h-8v-1a1 1 0 0 1 1-1h6a1 1 0 0 1 1 1zm-2-4h-4v-2h4zm6-4h-16a1 1 0 0 1 -1-1v-1h18v1a1 1 0 0 1 -1 1z" data-original="#000000" class="active-path" data-old_color="#000000" fill="#43A6C1"/><path d="m21 38h-16a3 3 0 0 0 -3 3v10a3 3 0 0 0 3 3h4v2.184a3 3 0 0 0 -2 2.816v2a1 1 0 0 0 1 1h10a1 1 0 0 0 1-1v-2a3 3 0 0 0 -2-2.816v-2.184h4a3 3 0 0 0 3-3v-10a3 3 0 0 0 -3-3zm-16 2h16a1 1 0 0 1 1 1v7h-18v-7a1 1 0 0 1 1-1zm12 20h-8v-1a1 1 0 0 1 1-1h6a1 1 0 0 1 1 1zm-2-4h-4v-2h4zm6-4h-16a1 1 0 0 1 -1-1v-1h18v1a1 1 0 0 1 -1 1z" data-original="#000000" class="active-path" data-old_color="#000000" fill="#43A6C1"/><path d="m5 18h4v2.184a3 3 0 0 0 -2 2.816v2a1 1 0 0 0 1 1h10a1 1 0 0 0 1-1v-2a3 3 0 0 0 -2-2.816v-2.184h4a3 3 0 0 0 3-3v-10a3 3 0 0 0 -3-3h-16a3 3 0 0 0 -3 3v10a3 3 0 0 0 3 3zm12 6h-8v-1a1 1 0 0 1 1-1h6a1 1 0 0 1 1 1zm-2-4h-4v-2h4zm6-4h-16a1 1 0 0 1 -1-1v-1h18v1a1 1 0 0 1 -1 1zm-16-12h16a1 1 0 0 1 1 1v7h-18v-7a1 1 0 0 1 1-1z" data-original="#000000" class="active-path" data-old_color="#000000" fill="#43A6C1"/><path d="m31 27h2v-15h5v-2h-12v2h5z" data-original="#000000" class="active-path" data-old_color="#000000" fill="#43A6C1"/><path d="m33 37h-2v15h-5v2h12v-2h-5z" data-original="#000000" class="active-path" data-old_color="#000000" fill="#43A6C1"/><path d="m29 32a3 3 0 1 0 3-3 3 3 0 0 0 -3 3zm4 0a1 1 0 1 1 -1-1 1 1 0 0 1 1 1z" data-original="#000000" class="active-path" data-old_color="#000000" fill="#43A6C1"/><path d="m52 36v-8h-2v3h-13v2h13v3z" data-original="#000000" class="active-path" data-old_color="#000000" fill="#43A6C1"/><path d="m12 28v8h2v-3h13v-2h-13v-3z" data-original="#000000" class="active-path" data-old_color="#000000" fill="#43A6C1"/></g></g> </svg>
