<?xml version="1.0"?>
<svg xmlns="http://www.w3.org/2000/svg" height="512px" viewBox="0 0 64 64" width="512px"><g><g id="Server-System-Network-Gear-Database"><path d="m23 20h2v2h-2z" data-original="#000000" class="active-path" data-old_color="#000000" fill="#43A6C1"/><path d="m27 21h2v2h-2z" data-original="#000000" class="active-path" data-old_color="#000000" fill="#43A6C1"/><path d="m23 27h2v2h-2z" data-original="#000000" class="active-path" data-old_color="#000000" fill="#43A6C1"/><path d="m27 28h2v2h-2z" data-original="#000000" class="active-path" data-old_color="#000000" fill="#43A6C1"/><path d="m26 13h12v2h-12z" data-original="#000000" class="active-path" data-old_color="#000000" fill="#43A6C1"/><path d="m45 15h2v2h-2z" data-original="#000000" class="active-path" data-old_color="#000000" fill="#43A6C1"/><path d="m45 22h2v2h-2z" data-original="#000000" class="active-path" data-old_color="#000000" fill="#43A6C1"/><path d="m44 7h12v2h-12z" data-original="#000000" class="active-path" data-old_color="#000000" fill="#43A6C1"/><path d="m50 2c-6.84 0-12 2.58-12 6a3.012 3.012 0 0 0 .11.79 22.691 22.691 0 0 0 -6.11-.79 22.691 22.691 0 0 0 -6.11.79 3.012 3.012 0 0 0 .11-.79c0-3.42-5.16-6-12-6s-12 2.58-12 6v14c0 3.42 5.16 6 12 6a22.855 22.855 0 0 0 6-.78v.78c0 3.42 5.16 6 12 6s12-2.58 12-6v-.78a22.855 22.855 0 0 0 6 .78c6.84 0 12-2.58 12-6v-14c0-3.42-5.16-6-12-6zm-30 23.13a20.394 20.394 0 0 1 -6 .87c-5.72 0-10-2.11-10-4v-3.59c2.11 1.58 5.73 2.59 10 2.59a22.855 22.855 0 0 0 6-.78zm0-11.13v4.13a20.394 20.394 0 0 1 -6 .87c-5.72 0-10-2.11-10-4v-3.59c2.11 1.58 5.73 2.59 10 2.59a22.691 22.691 0 0 0 6.11-.79 3.012 3.012 0 0 0 -.11.79zm-6-2c-5.72 0-10-2.11-10-4s4.28-4 10-4 10 2.11 10 4-4.28 4-10 4zm28 16c0 1.89-4.28 4-10 4s-10-2.11-10-4v-3.59c2.11 1.58 5.73 2.59 10 2.59s7.89-1.01 10-2.59zm0-7c0 1.89-4.28 4-10 4s-10-2.11-10-4v-3.59c2.11 1.58 5.73 2.59 10 2.59s7.89-1.01 10-2.59zm-10-3c-5.72 0-10-2.11-10-4s4.28-4 10-4 10 2.11 10 4-4.28 4-10 4zm28 4c0 1.89-4.28 4-10 4a20.394 20.394 0 0 1 -6-.87v-4.91a22.855 22.855 0 0 0 6 .78c4.27 0 7.89-1.01 10-2.59zm0-7c0 1.89-4.28 4-10 4a20.394 20.394 0 0 1 -6-.87v-4.13a3.012 3.012 0 0 0 -.11-.79 22.691 22.691 0 0 0 6.11.79c4.27 0 7.89-1.01 10-2.59zm-10-3c-5.72 0-10-2.11-10-4s4.28-4 10-4 10 2.11 10 4-4.28 4-10 4z" data-original="#000000" class="active-path" data-old_color="#000000" fill="#43A6C1"/><path d="m5 14h2v2h-2z" data-original="#000000" class="active-path" data-old_color="#000000" fill="#43A6C1"/><path d="m9 15h2v2h-2z" data-original="#000000" class="active-path" data-old_color="#000000" fill="#43A6C1"/><path d="m5 21h2v2h-2z" data-original="#000000" class="active-path" data-old_color="#000000" fill="#43A6C1"/><path d="m9 22h2v2h-2z" data-original="#000000" class="active-path" data-old_color="#000000" fill="#43A6C1"/><path d="m8 7h12v2h-12z" data-original="#000000" class="active-path" data-old_color="#000000" fill="#43A6C1"/><path d="m32 44a6 6 0 1 0 6 6 6.006 6.006 0 0 0 -6-6zm0 10a4 4 0 1 1 4-4 4 4 0 0 1 -4 4z" data-original="#000000" class="active-path" data-old_color="#000000" fill="#43A6C1"/><path d="m51 47.18v-13.77l1.29 1.3 1.42-1.42-3-3a1.008 1.008 0 0 0 -1.42 0l-3 3 1.42 1.42 1.29-1.3v13.77a3.035 3.035 0 0 0 -1.82 1.82h-3.18v-1a1 1 0 0 0 -.8-.98l-1.78-.36a9 9 0 0 0 -.4-.97l1-1.5a.986.986 0 0 0 -.12-1.26l-2.83-2.83a.987.987 0 0 0 -1.26-.12l-1.5 1a9 9 0 0 0 -.97-.4l-.36-1.78a1 1 0 0 0 -.98-.8h-4a1 1 0 0 0 -.98.8l-.36 1.78a9 9 0 0 0 -.97.4l-1.5-1a.986.986 0 0 0 -1.26.12l-2.83 2.83a.986.986 0 0 0 -.12 1.26l1 1.5c-.15.32-.28.64-.4.97l-1.78.36a1 1 0 0 0 -.8.98v1h-3.18a3.035 3.035 0 0 0 -1.82-1.82v-13.77l1.29 1.3 1.42-1.42-3-3a1.008 1.008 0 0 0 -1.42 0l-3 3 1.42 1.42 1.29-1.3v13.77a3 3 0 1 0 3.82 3.82h3.18v1a1 1 0 0 0 .8.98l1.78.36c.12.33.25.65.4.97l-1 1.5a.986.986 0 0 0 .12 1.26l2.83 2.83a.986.986 0 0 0 1.26.12l1.5-1a9 9 0 0 0 .97.4l.36 1.78a1 1 0 0 0 .98.8h4a1 1 0 0 0 .98-.8l.36-1.78a9 9 0 0 0 .97-.4l1.5 1a.986.986 0 0 0 1.26-.12l2.83-2.83a.986.986 0 0 0 .12-1.26l-1-1.5a9 9 0 0 0 .4-.97l1.78-.36a1 1 0 0 0 .8-.98v-1h3.18a3 3 0 1 0 3.82-3.82zm-37 3.82a1 1 0 1 1 1-1 1 1 0 0 1 -1 1zm28 .18-1.55.31a.984.984 0 0 0 -.76.71 8.044 8.044 0 0 1 -.7 1.68 1.017 1.017 0 0 0 .04 1.05l.88 1.31-1.67 1.67-1.31-.88a1.017 1.017 0 0 0 -1.05-.04 8.044 8.044 0 0 1 -1.68.7.984.984 0 0 0 -.71.76l-.31 1.55h-2.36l-.31-1.55a.984.984 0 0 0 -.71-.76 8.359 8.359 0 0 1 -1.69-.7 1.022 1.022 0 0 0 -1.04.04l-1.31.88-1.67-1.67.88-1.31a1.017 1.017 0 0 0 .04-1.05 8.044 8.044 0 0 1 -.7-1.68.984.984 0 0 0 -.76-.71l-1.55-.31v-2.36l1.55-.31a.984.984 0 0 0 .76-.71 8.044 8.044 0 0 1 .7-1.68 1.017 1.017 0 0 0 -.04-1.05l-.88-1.31 1.67-1.67 1.31.88a1.022 1.022 0 0 0 1.04.04 8.359 8.359 0 0 1 1.69-.7.984.984 0 0 0 .71-.76l.31-1.55h2.36l.31 1.55a.984.984 0 0 0 .71.76 8.044 8.044 0 0 1 1.68.7 1.04 1.04 0 0 0 1.05-.04l1.31-.88 1.67 1.67-.88 1.31a1.017 1.017 0 0 0 -.04 1.05 8.044 8.044 0 0 1 .7 1.68.984.984 0 0 0 .76.71l1.55.31zm8-.18a1 1 0 1 1 1-1 1 1 0 0 1 -1 1z" data-original="#000000" class="active-path" data-old_color="#000000" fill="#43A6C1"/><path d="m53 45h2v2h-2z" data-original="#000000" class="active-path" data-old_color="#000000" fill="#43A6C1"/><path d="m53 41h2v2h-2z" data-original="#000000" class="active-path" data-old_color="#000000" fill="#43A6C1"/><path d="m53 37h2v2h-2z" data-original="#000000" class="active-path" data-old_color="#000000" fill="#43A6C1"/><path d="m9 45h2v2h-2z" data-original="#000000" class="active-path" data-old_color="#000000" fill="#43A6C1"/><path d="m9 41h2v2h-2z" data-original="#000000" class="active-path" data-old_color="#000000" fill="#43A6C1"/><path d="m9 37h2v2h-2z" data-original="#000000" class="active-path" data-old_color="#000000" fill="#43A6C1"/></g></g> </svg>
